<svg width="30" height="30" viewBox="0 0 30 30" fill="none" xmlns="http://www.w3.org/2000/svg">
<rect width="30" height="30" rx="8" fill="#00DB30"/>
<path fill-rule="evenodd" clip-rule="evenodd" d="M20.3177 6.49452C20.3176 6.49459 20.3178 6.49444 20.3177 6.49452L9.01144 17.8128L7.76704 22.2362L12.196 20.9947L23.5022 9.675C23.5933 9.58402 23.6452 9.45993 23.6452 9.33128C23.6452 9.20276 23.5941 9.0795 23.5032 8.98854C23.5031 8.98845 23.5033 8.98863 23.5032 8.98854L21.0047 6.4946C20.9136 6.40365 20.79 6.35247 20.6612 6.35247C20.5325 6.35247 20.4088 6.40371 20.3177 6.49452ZM19.0063 5.18443C19.4453 4.74619 20.0405 4.5 20.6612 4.5C21.2818 4.5 21.877 4.74616 22.3159 5.18434C22.3159 5.18437 22.3159 5.18431 22.3159 5.18434L24.8144 7.67829C25.2532 8.11666 25.5 8.71142 25.5 9.33128C25.5 9.95114 25.2535 10.5456 24.8147 10.984L13.3374 22.4749C13.2248 22.5877 13.085 22.6695 12.9315 22.7126L6.67805 24.4655C6.35523 24.556 6.00863 24.4654 5.77157 24.2286C5.5345 23.9918 5.4439 23.6456 5.53459 23.3232L7.2912 17.0792C7.33411 16.9266 7.41546 16.7877 7.52749 16.6755L19.0063 5.18443Z" fill="#331F33"/>
</svg>
