<svg width="28" height="28" viewBox="0 0 28 28" fill="none" xmlns="http://www.w3.org/2000/svg">
<path fill-rule="evenodd" clip-rule="evenodd" d="M22.3389 6.12501H6.22425L4.84738 3.65704C4.69283 3.38002 4.40046 3.20834 4.08325 3.20834H2.33325C1.85 3.20834 1.45825 3.60009 1.45825 4.08334C1.45825 4.56659 1.85 4.95834 2.33325 4.95834H3.56945L4.92826 7.39394L8.06201 14.3277L8.06523 14.3348L8.34124 14.9455L5.19493 18.3016C4.9687 18.5429 4.89788 18.8911 5.0119 19.2016C5.12592 19.5121 5.40529 19.7318 5.73392 19.7694L8.60174 20.0971C12.1889 20.5071 15.811 20.5071 19.3981 20.0971L22.266 19.7694C22.7461 19.7145 23.0908 19.2808 23.0359 18.8007C22.9811 18.3205 22.5474 17.9758 22.0673 18.0307L19.1994 18.3584C15.7443 18.7533 12.2555 18.7533 8.80045 18.3584L7.66234 18.2284L9.97162 15.7651C9.99396 15.7413 10.0147 15.7166 10.0339 15.691L10.9121 15.8053C12.1429 15.9654 13.387 15.9968 14.6242 15.899C17.5099 15.6708 20.1844 14.2976 22.0516 12.0856L22.726 11.2866C22.7487 11.2598 22.7697 11.2316 22.789 11.2023L24.0459 9.28678C24.9368 7.92906 23.9629 6.12501 22.3389 6.12501ZM10.0989 13.9347C9.90592 13.9096 9.73952 13.787 9.65827 13.6104L9.65671 13.607L7.06611 7.87501H22.3389C22.5709 7.87501 22.7101 8.13273 22.5828 8.32669L21.3548 10.1981L20.7144 10.9568C19.1487 12.8116 16.906 13.9631 14.4862 14.1544C13.3702 14.2427 12.2481 14.2144 11.1379 14.0699L10.0989 13.9347Z" fill="#8F8C8F"/>
<path d="M7.58325 21.5833C6.61676 21.5833 5.83325 22.3668 5.83325 23.3333C5.83325 24.2998 6.61676 25.0833 7.58325 25.0833C8.54975 25.0833 9.33325 24.2998 9.33325 23.3333C9.33325 22.3668 8.54975 21.5833 7.58325 21.5833Z" fill="#8F8C8F"/>
<path d="M18.6666 23.3333C18.6666 22.3668 19.4501 21.5833 20.4166 21.5833C21.3831 21.5833 22.1666 22.3668 22.1666 23.3333C22.1666 24.2998 21.3831 25.0833 20.4166 25.0833C19.4501 25.0833 18.6666 24.2998 18.6666 23.3333Z" fill="#8F8C8F"/>
</svg>
