<svg width="28" height="28" viewBox="0 0 28 28" fill="none" xmlns="http://www.w3.org/2000/svg">
<path fill-rule="evenodd" clip-rule="evenodd" d="M9.04159 8.74999C9.04159 6.01158 11.2615 3.79166 13.9999 3.79166C16.7383 3.79166 18.9583 6.01158 18.9583 8.74999C18.9583 11.4884 16.7383 13.7083 13.9999 13.7083C11.2615 13.7083 9.04159 11.4884 9.04159 8.74999ZM13.9999 5.54166C12.228 5.54166 10.7916 6.97808 10.7916 8.74999C10.7916 10.5219 12.228 11.9583 13.9999 11.9583C15.7718 11.9583 17.2083 10.5219 17.2083 8.74999C17.2083 6.97808 15.7718 5.54166 13.9999 5.54166Z" fill="#8F8C8F"/>
<path fill-rule="evenodd" clip-rule="evenodd" d="M9.33325 17.2083C7.88351 17.2083 6.70825 18.3836 6.70825 19.8333V21.2197C6.70825 21.2408 6.72355 21.2588 6.74438 21.2622C11.5496 22.0467 16.4502 22.0467 21.2555 21.2622C21.2763 21.2588 21.2916 21.2408 21.2916 21.2197V19.8333C21.2916 18.3836 20.1163 17.2083 18.6666 17.2083H18.2689C18.2382 17.2083 18.2076 17.2132 18.1784 17.2227L17.1686 17.5525C15.1096 18.2248 12.8902 18.2248 10.8312 17.5525L9.82147 17.2227C9.79224 17.2132 9.76168 17.2083 9.73093 17.2083H9.33325ZM4.95825 19.8333C4.95825 17.4171 6.91701 15.4583 9.33325 15.4583H9.73093C9.94617 15.4583 10.1601 15.4924 10.3647 15.5592L11.3744 15.8889C13.0804 16.446 14.9194 16.446 16.6254 15.8889L17.6352 15.5592C17.8398 15.4924 18.0537 15.4583 18.2689 15.4583H18.6666C21.0828 15.4583 23.0416 17.4171 23.0416 19.8333V21.2197C23.0416 22.0984 22.4047 22.8477 21.5374 22.9893C16.5455 23.8043 11.4544 23.8043 6.4624 22.9893C5.59512 22.8477 4.95825 22.0984 4.95825 21.2197V19.8333Z" fill="#8F8C8F"/>
</svg>
