<svg width="11" height="11" viewBox="0 0 11 11" fill="none" xmlns="http://www.w3.org/2000/svg">
<path fill-rule="evenodd" clip-rule="evenodd" d="M9.46967 0.46967C9.76256 0.176777 10.2374 0.176777 10.5303 0.46967C10.8232 0.762563 10.8232 1.23744 10.5303 1.53033L6.56066 5.5L10.5303 9.46967C10.8232 9.76256 10.8232 10.2374 10.5303 10.5303C10.2374 10.8232 9.76256 10.8232 9.46967 10.5303L5.5 6.56066L1.53033 10.5303C1.23744 10.8232 0.762563 10.8232 0.46967 10.5303C0.176777 10.2374 0.176777 9.76256 0.46967 9.46967L4.43934 5.5L0.46967 1.53033C0.176777 1.23744 0.176777 0.762563 0.46967 0.46967C0.762564 0.176777 1.23744 0.176777 1.53033 0.46967L5.5 4.43934L9.46967 0.46967Z" fill="#676879"/>
</svg>
